<svg xmlns="http://www.w3.org/2000/svg" width="680" height="400" viewBox="0 0 680 400" fill="none"><rect width="680" height="400" rx="20" fill="#F0F3EF"/><rect x="30" y="25" width="620" height="350" rx="14" fill="#fff" stroke="#DFE4DE"/><text x="56" y="64" fill="#101311" font-family="Arial,sans-serif" font-size="15" font-weight="700">Workflow performance</text><rect x="530" y="43" width="94" height="25" rx="7" fill="#F6F7F4" stroke="#DFE4DE"/><text x="550" y="60" fill="#59615C" font-family="Arial,sans-serif" font-size="10">Last 30 days</text><rect x="54" y="92" width="174" height="72" rx="9" fill="#F6F7F4"/><rect x="244" y="92" width="174" height="72" rx="9" fill="#F6F7F4"/><rect x="434" y="92" width="174" height="72" rx="9" fill="#F6F7F4"/><g font-family="Arial,sans-serif"><text x="72" y="117" fill="#59615C" font-size="10">Runs completed</text><text x="72" y="148" fill="#101311" font-size="23" font-weight="700">8,642</text><text x="262" y="117" fill="#59615C" font-size="10">Success rate</text><text x="262" y="148" fill="#101311" font-size="23" font-weight="700">98.4%</text><text x="452" y="117" fill="#59615C" font-size="10">Hours returned</text><text x="452" y="148" fill="#101311" font-size="23" font-weight="700">312</text></g><path d="M75 322h530M75 286h530M75 250h530M75 214h530" stroke="#E8ECE7"/><g fill="#B8F36B"><rect x="102" y="272" width="28" height="50" rx="4"/><rect x="164" y="246" width="28" height="76" rx="4"/><rect x="226" y="260" width="28" height="62" rx="4"/><rect x="288" y="224" width="28" height="98" rx="4"/><rect x="350" y="238" width="28" height="84" rx="4"/><rect x="412" y="206" width="28" height="116" rx="4"/><rect x="474" y="220" width="28" height="102" rx="4"/><rect x="536" y="188" width="28" height="134" rx="4"/></g><g fill="#59615C" font-family="Arial,sans-serif" font-size="9"><text x="101" y="345">Wk 1</text><text x="225" y="345">Wk 2</text><text x="349" y="345">Wk 3</text><text x="473" y="345">Wk 4</text></g></svg>